<svg width="800" height="800" viewBox="0 0 48 48" xml:space="preserve" xmlns="http://www.w3.org/2000/svg"><path d="M41 26.083h-1.192a8.025 8.025 0 0 0-7.017-7.456 6.475 6.475 0 0 0 3.145-5.543c0-3.571-2.906-6.477-6.478-6.477s-6.477 2.906-6.477 6.477a6.473 6.473 0 0 0 3.144 5.543 8.025 8.025 0 0 0-7.017 7.456H17.5V21a.5.5 0 0 0-.5-.5h-2.833v-2a.5.5 0 0 0-.5-.5h-2.834v-1.125a.5.5 0 0 0-.5-.5H7a.5.5 0 0 0-.5.5V31.75a.5.5 0 0 0 .5.5h2.833v8.917a.5.5 0 0 0 .5.5h27.334a.5.5 0 0 0 .5-.5V32.25H41a.5.5 0 0 0 .5-.5v-5.167a.5.5 0 0 0-.5-.5zm-17.019-13a5.483 5.483 0 0 1 5.477-5.477c3.021 0 5.478 2.457 5.478 5.477s-2.457 5.477-5.478 5.477a5.482 5.482 0 0 1-5.477-5.477zm3.125 6.478h4.704c3.704 0 6.748 2.883 7.005 6.522H20.101a7.03 7.03 0 0 1 7.005-6.522zm-16.273 6.522v-5.271h2.334v5.271h-2.334zm-3.333 0v-6.958h2.333v6.958H7.5zm6.667-2.761H16.5v2.761h-2.333v-2.761zM16.5 21.5v.822h-2.333V21.5H16.5zm-3.333-1.687h-2.334V19h2.334v.813zm-3.334-2.438v.75H7.5v-.75h2.333zm27.334 23.292H10.833V32.25h26.334v8.417zM40.5 31.25h-33v-4.167h33v4.167z" style="fill:#010101"/></svg>